inDegrees=no
num_controls=7
num_derivatives=13
num_iterations=104
num_multipliers=7
num_parameters=0
num_slacks=7
num_states=26
objective=0.444998
objective_accelerations=0.057016
objective_balance=0.003144
objective_effort=0.022673
objective_height=0.356683
objective_ligament=0.005482
solver_duration=1635.873537
status=Solve_Succeeded
success=true
DataType=double
version=3
OpenSimVersion=4.5
endheader
time	/jointset/ground_pelvis/pelvis_tilt/value	/jointset/ground_pelvis/pelvis_tx/value	/jointset/ground_pelvis/pelvis_ty/value	/jointset/hip_l/hip_flexion_l/value	/jointset/hip_l/hip_adduction_l/value	/jointset/hip_l/hip_rotation_l/value	/jointset/back/lumbar_extension/value	/jointset/patellofemoral_l/patellar_flexion_l/value	/jointset/knee_l/knee_flexion_l/value	/jointset/knee_l/knee_adduction_l/value	/jointset/knee_l/knee_rotation_l/value	/jointset/ankle_l/ankle_angle_l/value	/jointset/subtalar_l/subtalar_angle_l/value	/jointset/ground_pelvis/pelvis_tilt/speed	/jointset/ground_pelvis/pelvis_tx/speed	/jointset/ground_pelvis/pelvis_ty/speed	/jointset/hip_l/hip_flexion_l/speed	/jointset/hip_l/hip_adduction_l/speed	/jointset/hip_l/hip_rotation_l/speed	/jointset/back/lumbar_extension/speed	/jointset/patellofemoral_l/patellar_flexion_l/speed	/jointset/knee_l/knee_flexion_l/speed	/jointset/knee_l/knee_adduction_l/speed	/jointset/knee_l/knee_rotation_l/speed	/jointset/ankle_l/ankle_angle_l/speed	/jointset/subtalar_l/subtalar_angle_l/speed	/forceset/tau_hip_flexion_l	/forceset/tau_hip_adduction_l	/forceset/tau_hip_rotation_l	/forceset/tau_knee_flexion_l	/forceset/tau_ankle_angle_l	/forceset/tau_subtalar_angle_l	/forceset/tau_lumbar_extension	lambda_cid13_p0	lambda_cid13_p1	lambda_cid13_p2	lambda_cid13_p3	lambda_cid13_p4	lambda_cid13_p5	lambda_cid14_p0	/jointset/ground_pelvis/pelvis_tilt/accel	/jointset/ground_pelvis/pelvis_tx/accel	/jointset/ground_pelvis/pelvis_ty/accel	/jointset/hip_l/hip_flexion_l/accel	/jointset/hip_l/hip_adduction_l/accel	/jointset/hip_l/hip_rotation_l/accel	/jointset/back/lumbar_extension/accel	/jointset/patellofemoral_l/patellar_flexion_l/accel	/jointset/knee_l/knee_flexion_l/accel	/jointset/knee_l/knee_adduction_l/accel	/jointset/knee_l/knee_rotation_l/accel	/jointset/ankle_l/ankle_angle_l/accel	/jointset/subtalar_l/subtalar_angle_l/accel	gamma_cid13_p0	gamma_cid13_p1	gamma_cid13_p2	gamma_cid13_p3	gamma_cid13_p4	gamma_cid13_p5	gamma_cid14_p0
0	-0.03912913829687305	0.0687385364819539	0.8959348622749934	0.1955287580552426	-0.3221734630956231	-0.4800627117380208	-0.1379045077516729	0.0701528807908486	0.07015288079084844	-0.1745326948763454	-0.1146953866469701	-0.06701059314715049	0.003602543880171378	0	0	0	0	0	0	0	0	0	0	0	0	0	0.1106182758498536	-0.107287563469164	-0.03136871103929125	-0.2472143452235407	0.2125919431558277	-0.01405071741842286	-0.05369325532518297	32.72787226205627	-2.189773099104578	2.939140179216966	-7.386700603095765	-515.4713528371067	-82.16780648732157	-39.83212131304095	-4.31524153523771	-1.669128226419763	-0.9605508220881429	12.27026370949393	-2.145446935937494	3.371145560306183	-2.802548047123567	10.40668836747275	10.40668836747215	0.6845413838249301	-0.8447069521803873	2.656402196221813	-0.9081100798780041	-3.085785803502081e-08	1.249312963257084e-07	1.244558232614114e-07	1.53734674368073e-08	-2.46195818404621e-08	-4.828894133789588e-08	-5.924022449828135e-09
0.01	-0.03933492338326711	0.0686564161736104	0.8958882359486369	0.1961219099012235	-0.3222791227304453	-0.4798933475295024	-0.1380504130530887	0.0706586562943822	0.07065865629437802	-0.1745019445081322	-0.1147313476149077	-0.06688244102198185	0.003556324021767812	-0.04096842540298461	-0.0163314179463091	-0.009295409722376415	0.1180892563081884	-0.02103235086108864	0.03372747190490862	-0.02892467380845539	0.1007223743397217	0.1007223743397148	0.006128062005040761	-0.007157275324816169	0.02554891185544804	-0.009180197855298892	0.1066592772673371	-0.1055951299801472	-0.03067804720462673	-0.242732978880587	0.2070490317773626	-0.01228382917733851	-0.0502577425978678	30.98731675063886	-2.688491842224549	3.059904127672026	-6.916843046627904	-516.3332446286512	-82.98669941077277	-39.84237622458746	-3.959365947899187	-1.601248945644285	-0.9095626389026201	11.49707742816701	-2.067225999311802	3.351729121404797	-2.898969076492596	9.840104197149993	9.840104197149243	0.5736728839468208	-0.6459884048162841	2.49191008104823	-0.9134425398100428	-7.229798523618292e-08	1.534922755798142e-07	2.08248305877965e-07	5.125112167806668e-08	-2.476193013548379e-07	-1.044391607525765e-07	-1.277710209351685e-08
0.02	-0.03994473730470419	0.06841376161242227	0.8957495502067385	0.1978797184776197	-0.322592125241502	-0.4793910723787688	-0.1384778734983468	0.07215867398728736	0.07215867398728715	-0.1744105666648021	-0.1148378314525491	-0.0665012448980902	0.003420208604520416	-0.08080576700878188	-0.03210685056892643	-0.01841188310835067	0.2329313460838064	-0.0414685752468702	0.06658218844267978	-0.0563110287683536	0.1988484378765683	0.1988484378765536	0.01212549501420444	-0.01410457393699362	0.05060879974457361	-0.01797911176876812	0.1027002786847637	-0.1039026964911271	-0.02998738336987381	-0.2382516125376769	0.2015061203988859	-0.01051694093625771	-0.04682222987059156	29.31123634222528	-3.200035105416849	3.184467886149325	-6.621401118971191	-516.2622328663183	-83.6403041544239	-39.87257405352977	-4.089024775800262	-1.557931161681392	-0.9247635548077153	11.62083040297983	-2.026221640876131	3.196594486878693	-2.494884277412134	9.887426206897745	9.887426206896968	0.6584155846493939	-0.802711609652647	2.558597402957324	-0.8318532915121298	-1.13738112437345e-07	1.8205325483392e-07	2.920407884945185e-07	8.712877591932607e-08	-4.706190208692136e-07	-1.605893801672571e-07	-1.963018173720557e-08
0.03	-0.04094783323058437	0.06801609819301586	0.8955203031436465	0.2007707673820854	-0.323106300378779	-0.4785647273663554	-0.1391709742254781	0.074627355109809	0.07462735510981676	-0.1742595538066054	-0.115012982071224	-0.06587181891264572	0.003198258905302697	-0.1196196555759222	-0.04733395826793321	-0.02742794452150074	0.3447356560019962	-0.06124660911921555	0.09855683221149179	-0.08206319844757974	0.2944292554731194	0.2944292554731175	0.01805922646665161	-0.02086585593877004	0.0751794055580314	-0.02633561931478209	0.09824204988613248	-0.101392153769123	-0.02922238331543497	-0.233912601655155	0.1960587169462068	-0.009215902331845471	-0.04309575536419888	27.64144035216649	-3.52861042122082	3.300706415778675	-6.164953187439109	-516.230102561077	-83.82877920844439	-39.9214985444829	-3.748519370546242	-1.491301746617623	-0.8886847111039307	10.87879390601863	-1.935671159994883	3.178364137342522	-2.578495581642605	9.3246338164899	9.324633816492412	0.5582398017730256	-0.6038471309041165	2.391741397933933	-0.8263296801595753	-1.449946008667088e-07	1.958140326669756e-07	3.510449607821326e-07	1.161088258928533e-07	-6.461280932638764e-07	-2.022815081166667e-07	-2.447976605893757e-08
0.04	-0.04233325773680958	0.06746892346209796	0.895201164011116	0.2047635719096888	-0.3238146712346952	-0.477422542953159	-0.1401142191030935	0.07803808926439275	0.07803808926439447	-0.1740497260586168	-0.1152539476369975	-0.06499959702358761	0.002894988091822136	-0.1572714830780738	-0.0620091128712271	-0.03639029699603098	0.4532824707113912	-0.08030771897480543	0.129750068598707	-0.1063398588653959	0.3872590442879151	0.3872590442879341	0.02388847296832019	-0.02726756335910625	0.09916798046724649	-0.03424333462133978	0.09378382108747496	-0.09888161104713153	-0.02845738326106441	-0.2295735907726474	0.1906113134935134	-0.007914863727453826	-0.03936928085780821	26.03044145787993	-3.868180240347957	3.419497882871031	-5.871829685788278	-515.3485803454384	-83.86211531781649	-39.98758066238216	-3.856612562802535	-1.447540542538809	-0.9140217670837535	10.96933136122082	-1.88283683752506	3.040313010559333	-2.199782425130153	9.337220450546635	9.337220450547493	0.6375185944936264	-0.7307966933646091	2.442191222108787	-0.7420948436208963	-1.760411173626336e-07	2.092696517078446e-07	4.095380338877066e-07	1.449466572216851e-07	-8.206579770581328e-07	-2.43675531087411e-07	-2.928804119877357e-08
0.05	-0.04408994304799176	0.06677749747515006	0.8947923875210798	0.2098271147437737	-0.3247100256211273	-0.4759727403927101	-0.1412923477845415	0.08236433237834441	0.08236433237834612	-0.1737818887400618	-0.1155579136213584	-0.06389035791561026	0.002514941358098836	-0.193856336098478	-0.07620659407311145	-0.04537400853245423	0.5589083265229486	-0.09863504830852925	0.1600775460297732	-0.1290614967164031	0.4775365894681061	0.4775365894681879	0.02965679310309835	-0.03347404473131545	0.1225532500507981	-0.04169949065490835	0.08821926572113213	-0.09298656640261123	-0.02743687436732268	-0.2238235102704049	0.1838980502448923	-0.008623942797261629	-0.03494463829608589	23.92561704234112	-3.344114391553925	3.510055011394152	-4.793815782645845	-514.5165845526786	-81.9428003017231	-40.06884377366715	-3.528047137935338	-1.395399119853812	-0.892062517050323	10.28152198403615	-1.78852936979725	3.008975022575763	-2.274697358908675	8.805079093150095	8.80507909315876	0.5432425073526755	-0.5577826857708924	2.267701214238538	-0.7374763257031522	-1.936815383938033e-07	2.113501701300067e-07	4.467559782543397e-07	1.61461792246887e-07	-9.248479467612798e-07	-2.694152470617314e-07	-3.230314160838145e-08
